<svg xmlns="http://www.w3.org/2000/svg" viewBox="0 0 800 600">
  <defs>
    <linearGradient id="g" x1="0" y1="0" x2="1" y2="1">
      <stop offset="0%" stop-color="#132548"/>
      <stop offset="100%" stop-color="#0a1220"/>
    </linearGradient>
  </defs>
  <rect width="800" height="600" fill="url(#g)"/>
  <g stroke="rgba(248,250,252,0.08)" stroke-width="1">
    <path d="M0 150 H800"/><path d="M0 300 H800"/><path d="M0 450 H800"/>
    <path d="M200 0 V600"/><path d="M400 0 V600"/><path d="M600 0 V600"/>
  </g>
  <g transform="translate(300,180)" fill="none" stroke="#f97316" stroke-width="4" stroke-linecap="round" stroke-linejoin="round">
    <path d="M30 20 h70 v140 h-70 a10 10 0 0 1 -10 -10 v-120 a10 10 0 0 1 10 -10 z"/><path d="M170 20 h-70 v140 h70 a10 10 0 0 0 10 -10 v-120 a10 10 0 0 0 -10 -10 z"/><path d="M100 20 v140"/>
  </g>
  <text x="400" y="520" text-anchor="middle" font-family="monospace" font-size="20" letter-spacing="4" fill="rgba(248,250,252,0.35)">BOOK</text>
</svg>