<svg xmlns="http://www.w3.org/2000/svg" viewBox="0 0 1600 900">
  <defs>
    <linearGradient id="bg" x1="0" y1="0" x2="1" y2="1">
      <stop offset="0%" stop-color="#0a1220"/>
      <stop offset="55%" stop-color="#0f172a"/>
      <stop offset="100%" stop-color="#16213c"/>
    </linearGradient>
    <linearGradient id="line" x1="0" y1="0" x2="1" y2="0">
      <stop offset="0%" stop-color="#2563eb" stop-opacity="0"/>
      <stop offset="50%" stop-color="#2563eb" stop-opacity="0.7"/>
      <stop offset="100%" stop-color="#2563eb" stop-opacity="0"/>
    </linearGradient>
  </defs>
  <rect width="1600" height="900" fill="url(#bg)"/>
  <g stroke="#243352" stroke-width="1">
    <path d="M0 120 H1600"/><path d="M0 260 H1600"/><path d="M0 400 H1600"/>
    <path d="M0 540 H1600"/><path d="M0 680 H1600"/><path d="M0 820 H1600"/>
    <path d="M200 0 V900"/><path d="M480 0 V900"/><path d="M760 0 V900"/>
    <path d="M1040 0 V900"/><path d="M1320 0 V900"/>
  </g>
  <g fill="none" stroke="url(#line)" stroke-width="2">
    <path d="M0 400 C 300 400, 300 260, 620 260 S 940 540, 1260 540 S 1400 300, 1600 300"/>
    <path d="M0 620 C 260 620, 260 700, 560 700 S 900 480, 1200 480 S 1450 640, 1600 640"/>
  </g>
  <g fill="#f97316">
    <circle cx="620" cy="260" r="5"/>
    <circle cx="940" cy="540" r="5"/>
    <circle cx="1260" cy="540" r="5"/>
    <circle cx="560" cy="700" r="4"/>
    <circle cx="1200" cy="480" r="4"/>
  </g>
  <g fill="#60a5fa" opacity="0.8">
    <circle cx="200" cy="120" r="3"/>
    <circle cx="480" cy="260" r="3"/>
    <circle cx="1040" cy="680" r="3"/>
    <circle cx="1320" cy="120" r="3"/>
  </g>
</svg>
